<svg width="20" height="20" viewBox="0 0 20 20" fill="none" xmlns="http://www.w3.org/2000/svg">
<g clip-path="url(#clip0_590_11255)">
<path d="M5 15H11.6667M2.5 18.3333H17.5M11.6667 18.3333C13.2138 18.3333 14.6975 17.7187 15.7915 16.6247C16.8854 15.5308 17.5 14.0471 17.5 12.5C17.5 10.9529 16.8854 9.46913 15.7915 8.37517C14.6975 7.28121 13.2138 6.66663 11.6667 6.66663H10.8333M7.5 11.6666H9.16667M10 4.99996V2.49996C10 2.27895 9.9122 2.06698 9.75592 1.9107C9.59964 1.75442 9.38768 1.66663 9.16667 1.66663H7.5C7.27899 1.66663 7.06702 1.75442 6.91074 1.9107C6.75446 2.06698 6.66667 2.27895 6.66667 2.49996V4.99996M7.5 9.99996C7.05797 9.99996 6.63405 9.82436 6.32149 9.5118C6.00893 9.19924 5.83333 8.77532 5.83333 8.33329V4.99996H10.8333V8.33329C10.8333 8.77532 10.6577 9.19924 10.3452 9.5118C10.0326 9.82436 9.60869 9.99996 9.16667 9.99996H7.5Z" stroke="#4B5563" stroke-linecap="round" stroke-linejoin="round"/>
</g>
<defs>
<clipPath id="clip0_590_11255">
<rect width="20" height="20" fill="white"/>
</clipPath>
</defs>
</svg>
